<?xml version="1.0" encoding="UTF-8"?>
<svg width="944px" height="344px" viewBox="0 0 944 344" version="1.1" xmlns="http://www.w3.org/2000/svg" xmlns:xlink="http://www.w3.org/1999/xlink">
    <title>ohno</title>
    <g id="Page-1" stroke="none" stroke-width="1" fill="none" fill-rule="evenodd">
        <g id="Frame-Copy-2" transform="translate(-78, -354)" fill="#FF5722">
            <g id="ohno" transform="translate(43.2515, 225.5713)">
                <path d="M142.208703,236.822484 C163.341172,236.822484 181.871927,240.698117 197.800969,248.449383 C213.73001,256.200648 226.223398,268.696281 235.281133,285.936281 C244.338867,303.176281 248.867734,326.079891 248.867734,354.647109 C248.867734,383.209839 244.338867,406.088755 235.281133,423.283859 C226.223398,440.478964 213.73001,452.902763 197.800969,460.555258 C181.871927,468.207753 163.341172,472.034 142.208703,472.034 C121.363568,472.034 102.904646,468.207753 86.8319375,460.555258 C70.7592292,452.902763 58.1951302,440.478964 49.1396406,423.283859 C40.084151,406.088755 35.5564063,383.209839 35.5564063,354.647109 C35.5564063,326.079891 40.084151,303.176281 49.1396406,285.936281 C58.1951302,268.696281 70.7592292,256.200648 86.8319375,248.449383 C102.904646,240.698117 121.363568,236.822484 142.208703,236.822484 Z M142.208703,245.442484 C131.123922,245.442484 121.95507,254.017589 114.702148,271.167797 C107.449227,288.318005 103.822766,316.144443 103.822766,354.647109 C103.822766,393.149776 107.449227,420.903258 114.702148,437.907555 C121.95507,454.911852 131.123922,463.414 142.208703,463.414 C153.293484,463.414 162.463458,454.911852 169.718625,437.907555 C176.973792,420.903258 180.601375,393.149776 180.601375,354.647109 C180.601375,316.144443 176.973792,288.318005 169.718625,271.167797 C162.463458,254.017589 153.293484,245.442484 142.208703,245.442484 Z" id="Shape" fill-rule="nonzero"></path>
                <path d="M340.270291,128.823312 L340.270291,275.316172 C347.345874,261.263776 356.976031,251.335063 369.16076,245.530031 C381.345489,239.725 395.058921,236.822484 410.301057,236.822484 C422.791077,236.822484 432.797236,238.406185 440.319533,241.573586 C447.84183,244.740987 453.751244,248.814161 458.047775,253.793109 C462.721432,259.144693 466.109945,266.130484 468.213314,274.750484 C470.316684,283.370484 471.368369,295.007484 471.368369,309.661484 L471.368369,425.917 C471.368369,437.985 473.393171,446.174 477.442775,450.484 C481.49238,454.794 488.426541,456.949 498.24526,456.949 L498.24526,466 C492.772458,465.712667 484.468973,465.3535 473.334807,464.9225 C462.20064,464.4915 451.304421,464.276 440.64615,464.276 C429.399744,464.276 418.418223,464.4915 407.701588,464.9225 C396.984952,465.3535 388.93513,465.712667 383.552119,466 L383.552119,456.949 C391.938661,456.949 397.796445,454.794 401.125471,450.484 C404.454497,446.174 406.11901,437.985 406.11901,425.917 L406.11901,290.771563 C406.11901,283.826177 405.400676,277.794422 403.96401,272.676297 C402.527343,267.558172 399.980627,263.581523 396.323861,260.746352 C392.667096,257.91118 387.431119,256.493594 380.615932,256.493594 C373.342807,256.493594 366.651083,258.426359 360.54076,262.291891 C354.430437,266.157422 349.524445,271.579716 345.822783,278.558773 C342.121122,285.537831 340.270291,293.505719 340.270291,302.462437 L340.270291,425.917 C340.270291,437.985 341.984189,446.174 345.411986,450.484 C348.839783,454.794 354.648182,456.949 362.837182,456.949 L362.837182,466 C357.651713,465.712667 349.993606,465.3535 339.862861,464.9225 C329.732117,464.4915 319.337609,464.276 308.679338,464.276 C297.432932,464.276 285.997963,464.4915 274.374432,464.9225 C262.7509,465.3535 254.007437,465.712667 248.144041,466 L248.144041,456.949 C257.96276,456.949 264.896921,454.794 268.946525,450.484 C272.99613,446.174 275.020932,437.985 275.020932,425.917 L275.020932,180.543313 C275.020932,167.613312 273.113981,158.059479 269.30008,151.881813 C265.486179,145.704146 258.434166,142.615313 248.144041,142.615313 L248.144041,133.564313 C257.338708,134.426312 266.246041,134.857312 274.866041,134.857312 C287.311166,134.857312 299.007653,134.354479 309.955502,133.348813 C320.903351,132.343146 331.008281,130.834646 340.270291,128.823312 Z" id="Path" fill-rule="nonzero"></path>
                <path d="M675.839567,236.822484 C688.329588,236.822484 698.335747,238.406185 705.858044,241.573586 C713.380341,244.740987 719.289755,248.814161 723.586286,253.793109 C728.259942,259.144693 731.648455,266.130484 733.751825,274.750484 C735.855195,283.370484 736.90688,295.007484 736.90688,309.661484 L736.90688,425.917 C736.90688,437.985 738.931682,446.174 742.981286,450.484 C747.03089,454.794 753.965052,456.949 763.783771,456.949 L763.783771,466 C758.310968,465.712667 750.007484,465.3535 738.873317,464.9225 C727.739151,464.4915 716.842932,464.276 706.184661,464.276 C694.938255,464.276 683.956734,464.4915 673.240099,464.9225 C662.523463,465.3535 654.47364,465.712667 649.09063,466 L649.09063,456.949 C657.477172,456.949 663.334955,454.794 666.663981,450.484 C669.993007,446.174 671.657521,437.985 671.657521,425.917 L671.657521,290.771562 C671.657521,283.826177 670.939187,277.794422 669.502521,272.676297 C668.065854,267.558172 665.519138,263.581523 661.862372,260.746352 C658.205606,257.91118 652.96963,256.493594 646.154442,256.493594 C638.791526,256.493594 632.054906,258.472378 625.944583,262.429945 C619.83426,266.387513 614.950716,271.878273 611.29395,278.902227 C607.637185,285.92618 605.808802,293.824479 605.808802,302.597125 L605.808802,425.917 C605.808802,437.985 607.5227,446.174 610.950497,450.484 C614.378294,454.794 620.186692,456.949 628.375692,456.949 L628.375692,466 C623.190224,465.712667 615.532117,465.3535 605.401372,464.9225 C595.270627,464.4915 584.876119,464.276 574.217849,464.276 C562.975932,464.276 551.542086,464.4915 539.91631,464.9225 C528.290534,465.3535 519.545948,465.712667 513.682552,466 L513.682552,456.949 C523.501271,456.949 530.435432,454.794 534.485036,450.484 C538.53464,446.174 540.559442,437.985 540.559442,425.917 L540.559442,289.835484 C540.559442,276.905484 538.652492,267.351651 534.838591,261.173984 C531.02469,254.996318 523.972677,251.907484 513.682552,251.907484 L513.682552,242.856484 C522.877218,243.718484 531.784552,244.149484 540.404552,244.149484 C552.854166,244.149484 564.551776,243.646651 575.49738,242.640984 C586.442984,241.635318 596.546791,240.126818 605.808802,238.115484 L605.808802,275.450859 C612.884385,261.402953 622.515664,251.452914 634.702638,245.600742 C646.889612,239.74857 660.601922,236.822484 675.839567,236.822484 Z" id="Path" fill-rule="nonzero"></path>
                <path d="M871.281483,236.822484 C892.413952,236.822484 910.944707,240.698117 926.873749,248.449383 C942.802791,256.200648 955.296179,268.696281 964.353913,285.936281 C973.411647,303.176281 977.940515,326.079891 977.940515,354.647109 C977.940515,383.209839 973.411647,406.088755 964.353913,423.283859 C955.296179,440.478964 942.802791,452.902763 926.873749,460.555258 C910.944707,468.207753 892.413952,472.034 871.281483,472.034 C850.436348,472.034 831.977426,468.207753 815.904718,460.555258 C799.832009,452.902763 787.26791,440.478964 778.212421,423.283859 C769.156931,406.088755 764.629187,383.209839 764.629187,354.647109 C764.629187,326.079891 769.156931,303.176281 778.212421,285.936281 C787.26791,268.696281 799.832009,256.200648 815.904718,248.449383 C831.977426,240.698117 850.436348,236.822484 871.281483,236.822484 Z M871.281483,245.442484 C860.196702,245.442484 851.027851,254.017589 843.774929,271.167797 C836.522007,288.318005 832.895546,316.144443 832.895546,354.647109 C832.895546,393.149776 836.522007,420.903258 843.774929,437.907555 C851.027851,454.911852 860.196702,463.414 871.281483,463.414 C882.366265,463.414 891.536239,454.911852 898.791405,437.907555 C906.046572,420.903258 909.674155,393.149776 909.674155,354.647109 C909.674155,316.144443 906.046572,288.318005 898.791405,271.167797 C891.536239,254.017589 882.366265,245.442484 871.281483,245.442484 Z" id="Shape" fill-rule="nonzero"></path>
            </g>
        </g>
    </g>
</svg>